<svg xmlns="http://www.w3.org/2000/svg" version="1.1" viewBox="-5.0 -10.0 110.0 135.0">
 <g>
  <path d="m50.25 42.137c-4.3359 0-7.8672 3.5312-7.8672 7.8672 0 4.3359 3.5273 7.8672 7.8672 7.8672 4.3359 0 7.8672-3.5273 7.8672-7.8672 0-4.3359-3.5273-7.8672-7.8672-7.8672zm0 12.363c-2.4766 0-4.4961-2.0195-4.4961-4.4922 0-2.4766 2.0195-4.4961 4.4961-4.4961s4.4961 2.0195 4.4961 4.4961c0 2.4766-2.0195 4.4922-4.4961 4.4922z"/>
  <path d="m50.258 83.555c-18.512 0-33.57-15.043-33.57-33.539-0.003906-18.492 15.055-33.57 33.57-33.57 5.6797 0 11.312 1.457 16.281 4.2109l1.6328-2.9453c-5.4688-3.0312-11.664-4.6328-17.914-4.6328-20.367 0-36.941 16.574-36.941 36.945 0 20.367 16.57 36.91 36.941 36.91 6.25 0 12.445-1.6016 17.914-4.6328l-1.6328-2.9453c-4.9727 2.7578-10.602 4.2109-16.281 4.2109z"/>
  <path d="m50.25 31.215c-10.359 0-18.789 8.4297-18.789 18.789 0 10.363 8.4297 18.789 18.789 18.789 10.363 0 18.789-8.4297 18.789-18.789 0-10.363-8.4297-18.789-18.789-18.789zm0 34.211c-8.5039 0-15.422-6.918-15.422-15.422s6.9141-15.422 15.422-15.422 15.422 6.918 15.422 15.422-6.9141 15.422-15.422 15.422z"/>
  <path d="m85 33.008c0-6.1367-6.3711-10.758-9.7695-12.785-1.3203-0.78906-3.0703-0.36328-3.793 0.99219-0.88672 1.6602-1.7891 4.4883-1.7891 9.1367 0 9.2188 4.1016 11.668 4.1016 19.629 0 7.9609-4.1016 10.477-4.1016 19.664 0 4.6641 0.89844 7.4922 1.7852 9.1445 0.72656 1.3516 2.4766 1.7734 3.793 0.98828 3.3945-2.0234 9.7734-6.6445 9.7734-12.789 0-4.8984-1.3164-7.8594-1.3164-17.008 0-9.1484 1.3164-12.074 1.3164-16.977z"/>
 </g>
<text x="0.0" y="117.5" font-size="5.0" font-weight="bold" font-family="Arbeit Regular, Helvetica, Arial-Unicode, Arial, Sans-serif" fill="#000000">Created by IGraphics</text><text x="0.0" y="122.5" font-size="5.0" font-weight="bold" font-family="Arbeit Regular, Helvetica, Arial-Unicode, Arial, Sans-serif" fill="#000000">from Noun Project</text></svg>